<?xml version="1.0" encoding="UTF-8"?>
<svg width="120" height="120" version="1.1" viewBox="0 0 31.75 31.75" xmlns="http://www.w3.org/2000/svg" xmlns:cc="http://creativecommons.org/ns#" xmlns:dc="http://purl.org/dc/elements/1.1/" xmlns:osb="http://www.openswatchbook.org/uri/2009/osb" xmlns:rdf="http://www.w3.org/1999/02/22-rdf-syntax-ns#">
 <metadata>
  <rdf:RDF>
   <cc:Work rdf:about="">
    <dc:format>image/svg+xml</dc:format>
    <dc:type rdf:resource="http://purl.org/dc/dcmitype/StillImage"/>
    <dc:title/>
   </cc:Work>
  </rdf:RDF>
 </metadata>
 <g stroke="#000">
  <g stroke-width=".12627"></g>
  <g stroke-width=".089286"></g>
  <g stroke-width=".17857"></g>
  <g stroke-width=".25254"></g>
  <g stroke-width=".17857"></g>
  <g stroke-width=".35714"></g>
  <g stroke-width=".17857"></g>
  <g stroke-width=".12627"></g>
  <g stroke-width=".063134"></g>
  <g stroke-width=".063134"></g>
  <g stroke-width=".35714"></g>
  <g stroke-width=".12627"></g>
  <g stroke-width=".022321"></g>
  <g stroke-width=".015784"></g>
  <g stroke-width=".063134"></g>
  <g stroke-width=".12627"></g>
  <g stroke-width=".063134"></g>
  <path d="m14.99 31.7c-2.7396-0.23727-4.9046-0.88497-7.0249-2.1016-0.55344-0.31757-1.2727-0.79139-1.7845-1.1756-1.8692-1.4032-3.5388-3.4542-4.6308-5.6888-0.38214-0.782-0.56172-1.2643-0.87559-2.3513-0.43672-1.5126-0.60404-2.494-0.64474-3.7818-0.07618-2.4103 0.45712-5.2672 1.3341-7.1467 0.93592-2.0059 1.7335-3.2028 2.9868-4.4821 1.4463-1.4763 2.5732-2.3216 4.2246-3.1686 1.8133-0.93008 3.6454-1.4595 5.9181-1.7099 2.2368-0.24654 4.9458 0.15705 7.3412 1.0937 1.951 0.76289 4.2339 2.3056 5.5793 3.7703 1.4606 1.5901 2.3696 3.0466 3.1999 5.1269 1.0501 2.6309 1.3701 5.5641 0.90647 8.3086-0.54681 3.237-1.849 5.8821-4.1127 8.3542-1.9366 2.1149-4.6322 3.7017-7.5047 4.4177-1.7223 0.4293-3.6769 0.64225-4.9126 0.53523zm1.9106-3.6478c1.0238-0.20843 1.6009-0.49971 2.3022-1.1621 0.56607-0.53465 0.68453-0.92241 0.6876-2.2507 9.56e-4 -0.41254-0.01214-0.52989-0.05911-0.52989-0.03318 0-0.47866 0.23128-0.98996 0.51395-1.487 0.82211-1.7925 0.90976-3.0382 0.87173-0.82824-0.02529-1.0784-0.07713-1.9156-0.39696-0.98917-0.37791-2.182-1.4907-2.8968-2.7024-0.19235-0.32606-0.46739-1.115-0.54619-1.5667-0.03037-0.17405-0.04198-0.53603-0.02844-0.88582 0.01878-0.48519 0.05244-0.70499 0.18724-1.2229 0.1518-0.58317 0.33503-1.1938 0.37054-1.2349 0.0082-0.0095 0.22199 0.11765 0.47507 0.28254 0.25308 0.16489 0.46499 0.29442 0.47091 0.28784 0.0059-0.0066 0.03406-0.43812 0.06253-0.95899 0.06047-1.1065 0.16512-2.3861 0.23359-2.8562 0.0265-0.18194 0.03824-0.34072 0.0261-0.35284-0.01215-0.01212-0.22218 0.11301-0.46674 0.27808-0.63319 0.42737-1.3675 0.7755-2.2764 1.0792-0.43367 0.1449-0.80603 0.27914-0.82746 0.29832-0.02143 0.01917 0.1157 0.1196 0.30473 0.22316 0.18903 0.10356 0.35437 0.20554 0.36742 0.22662 0.01305 0.02108-0.12675 0.46069-0.31068 0.9769-0.39142 1.0986-0.49922 1.4685-0.58894 2.0209-0.20492 1.2618-0.09574 2.9126 0.27076 4.0936 0.25965 0.83671 0.93643 2.0145 1.5553 2.7066 1.0099 1.1295 2.5477 1.9949 4.0197 2.2623 0.5006 0.09091 2.162 0.09012 2.6108-0.0012zm4.4981-2.5814c1.184-0.86929 1.2138-0.88871 1.909-1.2444 0.32591-0.16673 0.65867-0.37125 0.73948-0.45448l0.14693-0.15132-0.17478-0.04841c-0.09612-0.02663-0.28874-0.0709-0.42802-0.09838-0.40923-0.08074-0.38999-0.0081-0.26994-1.019 0.16974-1.4294 0.17936-1.5413 0.18192-2.1165 0.0029-0.65915-0.12677-1.4849-0.32088-2.0427-0.22262-0.63978-0.68775-1.5306-1.2066-2.3108-0.44981-0.67638-0.55152-0.79652-1.2405-1.4652-0.41277-0.40063-0.88835-0.81983-1.0569-0.93156-0.47116-0.31242-1.2894-0.80115-1.3088-0.78177-0.04143 0.04136 0.42688 1.043 0.70941 1.5173 0.53489 0.89794 1.3869 2.4729 1.5977 2.9535 0.41172 0.93845 0.68576 1.947 0.73495 2.705 0.01753 0.27006-0.01157 0.59546-0.11459 1.2814-0.07594 0.5057-0.15055 0.93187-0.1658 0.94703-0.01524 0.01516-0.26993-0.10028-0.56597-0.25654-0.29604-0.15626-0.53825-0.26754-0.53825-0.24729s0.07216 0.60471 0.16035 1.2988c0.14209 1.1183 0.23972 2.2835 0.2446 2.9193 9.08e-4 0.11782 0.01404 0.21421 0.02918 0.21421 0.01515 0 0.43698-0.30061 0.93741-0.66803zm-10.234-11.467c0.44248-0.24928 1.3391-0.92782 1.6144-1.2217 0.35626-0.38038 1.305-1.5148 1.6619-1.9871 0.29245-0.38707 0.46916-0.76465 1.1398-2.4353 0.14685-0.36585 0.28027-0.66518 0.29649-0.66518 0.01621 0 0.06087 0.0761 0.09924 0.16911 0.03837 0.09301 0.34566 0.84895 0.68289 1.6799l0.61314 1.5107-1.3108 0.02496v0.22342c0 0.19496 0.01295 0.22628 0.10165 0.24592 0.0559 0.01238 0.3456 0.07558 0.64376 0.14046 0.72051 0.15678 1.0519 0.29035 2.1164 0.85301 0.49314 0.26067 0.906 0.47394 0.91749 0.47394 0.01149 0 0.01005-0.0175-0.0032-0.0389-0.03635-0.0587-0.03662-2.7643-3.11e-4 -3.2394l0.03167-0.41464-0.60362 0.24454c-0.332 0.13449-0.61972 0.22847-0.63939 0.20883-0.01969-0.01964-0.33075-0.69085-0.69127-1.4916-1.276-2.8342-1.5707-3.5721-1.713-4.2894-0.10903-0.54985-0.10445-0.53995-0.25007-0.53995-0.14455 0-0.1532 0.01815-0.31368 0.65772-0.20666 0.82367-0.88083 2.5862-1.5682 4.1-0.27898 0.61436-1.0592 2.096-1.2112 2.2999-0.11802 0.15842-0.80099 1.2991-1.3365 2.2323-0.36938 0.64364-0.67578 1.2557-0.67578 1.3499 0 0.08482 0.14433 0.05171 0.39836-0.09141zm0.73105-0.29214c0-0.0124-0.04066-8.34e-4 -0.09036 0.02572-0.04969 0.02655-0.09035 0.05842-0.09035 0.07082s0.04066 8.33e-4 0.09035-0.02572c0.04969-0.02655 0.09036-0.05842 0.09036-0.07082zm7.2475-0.66576c-0.01271-0.03307-0.05542-0.06013-0.09491-0.06013-0.06032 0-0.05863 0.0096 0.01058 0.06013 0.04531 0.03307 0.08802 0.06013 0.09491 0.06013 0.0069 0 0.0021-0.02706-0.01058-0.06013zm-3.1673-4.8508c-0.02542-0.09702-0.15857-0.09748-0.18469-6.44e-4 -0.01359 0.05039-0.0085 0.05148 0.02413 0.0052 0.03319-0.04701 0.05271-0.04479 0.09933 0.01127 0.07588 0.09126 0.08845 0.08802 0.06124-0.01583z" image-rendering="auto" stroke-width=".045137"/>
 </g>
</svg>
